<?xml version='1.0' encoding='utf-8'?>
<svg xmlns="http://www.w3.org/2000/svg" width="1024" height="768" viewBox="0 0 1024 768"><desc>Vectorized SG logo (white on transparent) auto-traced from PNG.</desc><path d="M 213.03 64.46 L 210.29 67.20 L 202.06 67.20 L 199.31 69.94 L 188.34 69.94 L 185.60 72.69 L 182.86 72.69 L 180.11 75.43 L 171.89 75.43 L 166.40 80.91 L 160.91 80.91 L 158.17 83.66 L 155.43 83.66 L 152.69 86.40 L 149.94 86.40 L 147.20 89.14 L 144.46 89.14 L 138.97 94.63 L 136.23 94.63 L 130.74 100.11 L 128.00 100.11 L 97.83 130.29 L 97.83 133.03 L 89.60 141.26 L 89.60 144.00 L 86.86 146.74 L 86.86 149.49 L 81.37 154.97 L 81.37 160.46 L 78.63 163.20 L 78.63 165.94 L 75.89 168.69 L 75.89 174.17 L 73.14 176.91 L 73.14 182.40 L 70.40 185.14 L 70.40 196.11 L 67.66 198.86 L 67.66 218.06 L 64.91 220.80 L 64.91 253.71 L 67.66 256.46 L 67.66 272.91 L 70.40 275.66 L 70.40 286.63 L 73.14 289.37 L 73.14 294.86 L 75.89 297.60 L 75.89 300.34 L 78.63 303.09 L 78.63 305.83 L 81.37 308.57 L 81.37 314.06 L 86.86 319.54 L 86.86 322.29 L 92.34 327.77 L 92.34 330.51 L 103.31 341.49 L 103.31 344.23 L 106.06 344.23 L 108.80 346.97 L 108.80 349.71 L 111.54 349.71 L 114.29 352.46 L 114.29 355.20 L 117.03 355.20 L 128.00 366.17 L 130.74 366.17 L 133.49 368.91 L 133.49 371.66 L 136.23 371.66 L 141.71 377.14 L 147.20 377.14 L 149.94 379.89 L 149.94 382.63 L 152.69 382.63 L 155.43 385.37 L 158.17 385.37 L 160.91 388.11 L 163.66 388.11 L 169.14 393.60 L 171.89 393.60 L 174.63 396.34 L 177.37 396.34 L 182.86 401.83 L 185.60 401.83 L 188.34 404.57 L 191.09 404.57 L 193.83 407.31 L 196.57 407.31 L 199.31 410.06 L 202.06 410.06 L 204.80 412.80 L 207.54 412.80 L 210.29 415.54 L 213.03 415.54 L 215.77 418.29 L 218.51 418.29 L 221.26 421.03 L 224.00 421.03 L 226.74 423.77 L 229.49 423.77 L 232.23 426.51 L 234.97 426.51 L 240.46 432.00 L 245.94 432.00 L 251.43 437.49 L 256.91 437.49 L 262.40 442.97 L 267.89 442.97 L 273.37 448.46 L 276.11 448.46 L 278.86 451.20 L 281.60 451.20 L 284.34 453.94 L 287.09 453.94 L 292.57 459.43 L 295.31 459.43 L 298.06 462.17 L 300.80 462.17 L 306.29 467.66 L 309.03 467.66 L 314.51 473.14 L 317.26 473.14 L 328.23 484.11 L 330.97 484.11 L 333.71 486.86 L 333.71 489.60 L 336.46 489.60 L 339.20 492.34 L 339.20 495.09 L 341.94 495.09 L 344.69 497.83 L 344.69 500.57 L 347.43 503.31 L 347.43 506.06 L 352.91 511.54 L 352.91 514.29 L 358.40 519.77 L 358.40 525.26 L 361.14 528.00 L 361.14 530.74 L 363.89 533.49 L 363.89 541.71 L 366.63 544.46 L 366.63 549.94 L 369.37 552.69 L 369.37 580.11 L 366.63 582.86 L 366.63 588.34 L 363.89 591.09 L 363.89 602.06 L 361.14 604.80 L 361.14 607.54 L 358.40 610.29 L 358.40 615.77 L 352.91 621.26 L 352.91 624.00 L 350.17 626.74 L 350.17 629.49 L 344.69 634.97 L 344.69 637.71 L 325.49 656.91 L 322.74 656.91 L 317.26 662.40 L 314.51 662.40 L 309.03 667.89 L 306.29 667.89 L 303.54 670.63 L 298.06 670.63 L 295.31 673.37 L 292.57 673.37 L 289.83 676.11 L 284.34 676.11 L 281.60 678.86 L 267.89 678.86 L 265.14 681.60 L 224.00 681.60 L 221.26 678.86 L 207.54 678.86 L 204.80 676.11 L 199.31 676.11 L 196.57 673.37 L 191.09 673.37 L 188.34 670.63 L 185.60 670.63 L 182.86 667.89 L 180.11 667.89 L 177.37 665.14 L 174.63 665.14 L 171.89 662.40 L 169.14 662.40 L 166.40 659.66 L 163.66 659.66 L 158.17 654.17 L 155.43 654.17 L 152.69 651.43 L 152.69 648.69 L 149.94 648.69 L 122.51 621.26 L 122.51 618.51 L 119.77 618.51 L 117.03 615.77 L 117.03 613.03 L 114.29 610.29 L 114.29 607.54 L 108.80 602.06 L 108.80 599.31 L 103.31 593.83 L 103.31 591.09 L 97.83 585.60 L 97.83 580.11 L 92.34 574.63 L 92.34 569.14 L 86.86 563.66 L 86.86 558.17 L 84.11 555.43 L 84.11 552.69 L 81.37 549.94 L 81.37 541.71 L 78.63 538.97 L 78.63 536.23 L 75.89 533.49 L 75.89 525.26 L 73.14 522.51 L 73.14 511.54 L 70.40 508.80 L 70.40 500.57 L 67.66 497.83 L 67.66 489.60 L 53.94 489.60 L 53.94 492.34 L 51.20 495.09 L 51.20 629.49 L 53.94 632.23 L 53.94 684.34 L 62.17 684.34 L 73.14 673.37 L 75.89 673.37 L 78.63 670.63 L 81.37 670.63 L 84.11 667.89 L 95.09 667.89 L 97.83 670.63 L 100.57 670.63 L 103.31 673.37 L 111.54 673.37 L 117.03 678.86 L 122.51 678.86 L 125.26 681.60 L 128.00 681.60 L 130.74 684.34 L 136.23 684.34 L 138.97 687.09 L 144.46 687.09 L 147.20 689.83 L 155.43 689.83 L 158.17 692.57 L 166.40 692.57 L 169.14 695.31 L 174.63 695.31 L 177.37 698.06 L 196.57 698.06 L 199.31 700.80 L 207.54 700.80 L 210.29 703.54 L 273.37 703.54 L 276.11 700.80 L 281.60 700.80 L 284.34 698.06 L 300.80 698.06 L 303.54 695.31 L 309.03 695.31 L 311.77 692.57 L 320.00 692.57 L 322.74 689.83 L 328.23 689.83 L 330.97 687.09 L 333.71 687.09 L 336.46 684.34 L 341.94 684.34 L 347.43 678.86 L 352.91 678.86 L 358.40 673.37 L 361.14 673.37 L 366.63 667.89 L 369.37 667.89 L 374.86 662.40 L 377.60 662.40 L 377.60 659.66 L 380.34 656.91 L 383.09 656.91 L 396.80 643.20 L 399.54 643.20 L 399.54 640.46 L 410.51 629.49 L 410.51 626.74 L 418.74 618.51 L 418.74 615.77 L 424.23 610.29 L 424.23 604.80 L 426.97 602.06 L 429.71 602.06 L 429.71 593.83 L 432.46 591.09 L 435.20 591.09 L 435.20 582.86 L 437.94 580.11 L 437.94 577.37 L 440.69 574.63 L 440.69 566.40 L 443.43 563.66 L 443.43 560.91 L 446.17 558.17 L 446.17 544.46 L 448.91 541.71 L 459.89 541.71 L 462.63 544.46 L 462.63 547.20 L 465.37 549.94 L 465.37 555.43 L 468.11 558.17 L 468.11 560.91 L 470.86 563.66 L 470.86 566.40 L 476.34 571.89 L 476.34 574.63 L 481.83 580.11 L 481.83 585.60 L 484.57 585.60 L 487.31 588.34 L 487.31 591.09 L 492.80 596.57 L 492.80 599.31 L 498.29 604.80 L 498.29 607.54 L 533.94 643.20 L 536.69 643.20 L 544.91 651.43 L 547.66 651.43 L 553.14 656.91 L 555.89 656.91 L 561.37 662.40 L 564.11 662.40 L 569.60 667.89 L 575.09 667.89 L 580.57 673.37 L 583.31 673.37 L 586.06 676.11 L 588.80 676.11 L 591.54 678.86 L 597.03 678.86 L 602.51 684.34 L 608.00 684.34 L 610.74 687.09 L 616.23 687.09 L 618.97 689.83 L 624.46 689.83 L 627.20 692.57 L 638.17 692.57 L 640.91 695.31 L 646.40 695.31 L 649.14 698.06 L 668.34 698.06 L 671.09 700.80 L 676.57 700.80 L 679.31 703.54 L 739.66 703.54 L 742.40 700.80 L 750.63 700.80 L 753.37 698.06 L 772.57 698.06 L 775.31 695.31 L 780.80 695.31 L 783.54 692.57 L 794.51 692.57 L 797.26 689.83 L 808.23 689.83 L 810.97 687.09 L 813.71 687.09 L 816.46 684.34 L 821.94 684.34 L 824.69 681.60 L 827.43 681.60 L 830.17 678.86 L 838.40 678.86 L 841.14 676.11 L 843.89 676.11 L 846.63 673.37 L 852.11 673.37 L 854.86 670.63 L 857.60 670.63 L 860.34 667.89 L 865.83 667.89 L 868.57 665.14 L 871.31 665.14 L 874.06 662.40 L 879.54 662.40 L 882.29 659.66 L 885.03 659.66 L 887.77 656.91 L 893.26 656.91 L 896.00 654.17 L 898.74 654.17 L 901.49 651.43 L 906.97 651.43 L 909.71 648.69 L 912.46 648.69 L 915.20 645.94 L 920.69 645.94 L 923.43 643.20 L 923.43 640.46 L 926.17 637.71 L 926.17 445.71 L 928.91 442.97 L 928.91 437.49 L 931.66 434.74 L 931.66 432.00 L 950.86 412.80 L 953.60 412.80 L 956.34 410.06 L 959.09 410.06 L 961.83 407.31 L 967.31 407.31 L 970.06 404.57 L 972.80 404.57 L 972.80 388.11 L 758.86 388.11 L 758.86 404.57 L 761.60 404.57 L 764.34 407.31 L 778.06 407.31 L 780.80 410.06 L 786.29 410.06 L 789.03 412.80 L 797.26 412.80 L 800.00 415.54 L 802.74 415.54 L 813.71 426.51 L 816.46 426.51 L 819.20 429.26 L 819.20 432.00 L 824.69 437.49 L 824.69 442.97 L 827.43 445.71 L 827.43 448.46 L 830.17 451.20 L 830.17 624.00 L 827.43 626.74 L 827.43 629.49 L 824.69 632.23 L 824.69 637.71 L 819.20 643.20 L 819.20 645.94 L 805.49 659.66 L 802.74 659.66 L 797.26 665.14 L 794.51 665.14 L 791.77 667.89 L 789.03 667.89 L 786.29 670.63 L 783.54 670.63 L 780.80 673.37 L 775.31 673.37 L 772.57 676.11 L 767.09 676.11 L 764.34 678.86 L 756.11 678.86 L 753.37 681.60 L 739.66 681.60 L 736.91 684.34 L 712.23 684.34 L 709.49 681.60 L 695.77 681.60 L 693.03 678.86 L 684.80 678.86 L 682.06 676.11 L 676.57 676.11 L 673.83 673.37 L 668.34 673.37 L 662.86 667.89 L 657.37 667.89 L 651.89 662.40 L 649.14 662.40 L 643.66 656.91 L 640.91 656.91 L 629.94 645.94 L 627.20 645.94 L 613.49 632.23 L 613.49 629.49 L 599.77 615.77 L 599.77 613.03 L 594.29 607.54 L 594.29 604.80 L 588.80 599.31 L 588.80 596.57 L 586.06 593.83 L 586.06 591.09 L 580.57 585.60 L 580.57 582.86 L 577.83 580.11 L 577.83 577.37 L 575.09 574.63 L 575.09 571.89 L 572.34 569.14 L 572.34 566.40 L 569.60 563.66 L 569.60 555.43 L 564.11 549.94 L 564.11 541.71 L 561.37 538.97 L 561.37 536.23 L 558.63 533.49 L 558.63 522.51 L 555.89 519.77 L 555.89 517.03 L 553.14 514.29 L 553.14 500.57 L 550.40 497.83 L 550.40 495.09 L 547.66 492.34 L 547.66 473.14 L 544.91 470.40 L 544.91 464.91 L 542.17 462.17 L 542.17 418.29 L 539.43 415.54 L 539.43 357.94 L 542.17 355.20 L 542.17 316.80 L 544.91 314.06 L 544.91 308.57 L 547.66 305.83 L 547.66 286.63 L 550.40 283.89 L 550.40 278.40 L 553.14 275.66 L 553.14 261.94 L 555.89 259.20 L 555.89 256.46 L 558.63 253.71 L 558.63 245.49 L 561.37 242.74 L 561.37 240.00 L 564.11 237.26 L 564.11 229.03 L 566.86 226.29 L 566.86 223.54 L 569.60 220.80 L 569.60 215.31 L 572.34 212.57 L 572.34 209.83 L 575.09 207.09 L 575.09 204.34 L 577.83 201.60 L 577.83 196.11 L 583.31 190.63 L 583.31 185.14 L 588.80 179.66 L 588.80 176.91 L 591.54 174.17 L 591.54 171.43 L 597.03 165.94 L 597.03 163.20 L 602.51 157.71 L 602.51 154.97 L 610.74 146.74 L 610.74 144.00 L 624.46 130.29 L 624.46 127.54 L 627.20 124.80 L 629.94 124.80 L 640.91 113.83 L 643.66 113.83 L 651.89 105.60 L 654.63 105.60 L 657.37 102.86 L 660.11 102.86 L 662.86 100.11 L 665.60 100.11 L 671.09 94.63 L 676.57 94.63 L 679.31 91.89 L 682.06 91.89 L 684.80 89.14 L 693.03 89.14 L 695.77 86.40 L 701.26 86.40 L 704.00 83.66 L 750.63 83.66 L 753.37 86.40 L 761.60 86.40 L 764.34 89.14 L 775.31 89.14 L 778.06 91.89 L 780.80 91.89 L 783.54 94.63 L 791.77 94.63 L 797.26 100.11 L 802.74 100.11 L 808.23 105.60 L 810.97 105.60 L 816.46 111.09 L 819.20 111.09 L 824.69 116.57 L 827.43 116.57 L 835.66 124.80 L 838.40 124.80 L 841.14 127.54 L 841.14 130.29 L 854.86 144.00 L 854.86 146.74 L 865.83 157.71 L 865.83 160.46 L 868.57 163.20 L 868.57 165.94 L 874.06 171.43 L 874.06 174.17 L 876.80 176.91 L 876.80 179.66 L 879.54 182.40 L 879.54 187.89 L 882.29 190.63 L 882.29 193.37 L 885.03 196.11 L 885.03 204.34 L 890.51 209.83 L 890.51 220.80 L 893.26 223.54 L 893.26 229.03 L 896.00 231.77 L 896.00 242.74 L 898.74 245.49 L 898.74 248.23 L 901.49 250.97 L 901.49 253.71 L 912.46 253.71 L 917.94 248.23 L 920.69 248.23 L 920.69 209.83 L 917.94 207.09 L 917.94 163.20 L 915.20 160.46 L 915.20 119.31 L 912.46 116.57 L 912.46 102.86 L 898.74 102.86 L 896.00 100.11 L 887.77 100.11 L 885.03 97.37 L 882.29 97.37 L 879.54 94.63 L 874.06 94.63 L 871.31 91.89 L 868.57 91.89 L 865.83 89.14 L 860.34 89.14 L 857.60 86.40 L 849.37 86.40 L 843.89 80.91 L 832.91 80.91 L 830.17 78.17 L 827.43 78.17 L 824.69 75.43 L 813.71 75.43 L 810.97 72.69 L 805.49 72.69 L 802.74 69.94 L 789.03 69.94 L 786.29 67.20 L 775.31 67.20 L 772.57 64.46 L 693.03 64.46 L 690.29 67.20 L 679.31 67.20 L 676.57 69.94 L 662.86 69.94 L 660.11 72.69 L 654.63 72.69 L 651.89 75.43 L 643.66 75.43 L 640.91 78.17 L 638.17 78.17 L 635.43 80.91 L 627.20 80.91 L 621.71 86.40 L 613.49 86.40 L 610.74 89.14 L 608.00 89.14 L 605.26 91.89 L 602.51 91.89 L 599.77 94.63 L 597.03 94.63 L 594.29 97.37 L 591.54 97.37 L 588.80 100.11 L 586.06 100.11 L 580.57 105.60 L 577.83 105.60 L 572.34 111.09 L 569.60 111.09 L 561.37 119.31 L 558.63 119.31 L 553.14 124.80 L 550.40 124.80 L 509.26 165.94 L 509.26 168.69 L 501.03 176.91 L 501.03 179.66 L 498.29 182.40 L 498.29 185.14 L 495.54 187.89 L 492.80 187.89 L 492.80 190.63 L 490.06 193.37 L 490.06 196.11 L 487.31 198.86 L 487.31 201.60 L 481.83 207.09 L 481.83 209.83 L 479.09 212.57 L 479.09 215.31 L 476.34 218.06 L 476.34 220.80 L 473.60 223.54 L 473.60 226.29 L 470.86 229.03 L 470.86 231.77 L 468.11 234.51 L 468.11 237.26 L 465.37 240.00 L 465.37 245.49 L 462.63 248.23 L 462.63 250.97 L 459.89 253.71 L 459.89 256.46 L 457.14 259.20 L 457.14 270.17 L 451.66 275.66 L 451.66 286.63 L 448.91 289.37 L 448.91 292.11 L 446.17 294.86 L 446.17 308.57 L 443.43 311.31 L 443.43 316.80 L 440.69 319.54 L 440.69 336.00 L 437.94 338.74 L 437.94 349.71 L 435.20 352.46 L 435.20 429.26 L 432.46 432.00 L 421.49 432.00 L 418.74 429.26 L 418.74 426.51 L 416.00 423.77 L 416.00 421.03 L 405.03 410.06 L 405.03 407.31 L 402.29 407.31 L 399.54 404.57 L 399.54 401.83 L 396.80 401.83 L 383.09 388.11 L 380.34 388.11 L 377.60 385.37 L 377.60 382.63 L 374.86 382.63 L 369.37 377.14 L 366.63 377.14 L 361.14 371.66 L 358.40 371.66 L 352.91 366.17 L 350.17 366.17 L 344.69 360.69 L 341.94 360.69 L 336.46 355.20 L 333.71 355.20 L 330.97 352.46 L 328.23 352.46 L 322.74 346.97 L 320.00 346.97 L 317.26 344.23 L 314.51 344.23 L 311.77 341.49 L 309.03 341.49 L 306.29 338.74 L 303.54 338.74 L 300.80 336.00 L 298.06 336.00 L 295.31 333.26 L 292.57 333.26 L 289.83 330.51 L 287.09 330.51 L 284.34 327.77 L 281.60 327.77 L 278.86 325.03 L 276.11 325.03 L 273.37 322.29 L 270.63 322.29 L 267.89 319.54 L 265.14 319.54 L 262.40 316.80 L 259.66 316.80 L 256.91 314.06 L 254.17 314.06 L 251.43 311.31 L 248.69 311.31 L 245.94 308.57 L 243.20 308.57 L 240.46 305.83 L 237.71 305.83 L 232.23 300.34 L 229.49 300.34 L 226.74 297.60 L 224.00 297.60 L 221.26 294.86 L 218.51 294.86 L 213.03 289.37 L 210.29 289.37 L 204.80 283.89 L 202.06 283.89 L 196.57 278.40 L 193.83 278.40 L 185.60 270.17 L 182.86 270.17 L 180.11 267.43 L 180.11 264.69 L 177.37 264.69 L 174.63 261.94 L 174.63 259.20 L 171.89 259.20 L 169.14 256.46 L 169.14 253.71 L 166.40 253.71 L 163.66 250.97 L 163.66 248.23 L 158.17 242.74 L 158.17 240.00 L 152.69 234.51 L 152.69 231.77 L 149.94 229.03 L 149.94 223.54 L 147.20 220.80 L 147.20 218.06 L 144.46 215.31 L 144.46 207.09 L 141.71 204.34 L 141.71 165.94 L 144.46 163.20 L 144.46 154.97 L 147.20 152.23 L 147.20 146.74 L 149.94 144.00 L 149.94 141.26 L 152.69 138.51 L 152.69 135.77 L 158.17 130.29 L 158.17 127.54 L 169.14 116.57 L 169.14 113.83 L 171.89 111.09 L 174.63 111.09 L 180.11 105.60 L 182.86 105.60 L 188.34 100.11 L 191.09 100.11 L 196.57 94.63 L 204.80 94.63 L 207.54 91.89 L 210.29 91.89 L 213.03 89.14 L 226.74 89.14 L 229.49 86.40 L 262.40 86.40 L 265.14 89.14 L 281.60 89.14 L 284.34 91.89 L 287.09 91.89 L 289.83 94.63 L 298.06 94.63 L 303.54 100.11 L 309.03 100.11 L 311.77 102.86 L 314.51 102.86 L 317.26 105.60 L 320.00 105.60 L 325.49 111.09 L 328.23 111.09 L 339.20 122.06 L 341.94 122.06 L 347.43 127.54 L 347.43 130.29 L 350.17 130.29 L 352.91 133.03 L 352.91 135.77 L 361.14 144.00 L 361.14 146.74 L 369.37 154.97 L 369.37 157.71 L 374.86 163.20 L 374.86 168.69 L 380.34 174.17 L 380.34 179.66 L 383.09 182.40 L 383.09 185.14 L 385.83 187.89 L 385.83 193.37 L 388.57 196.11 L 388.57 201.60 L 391.31 204.34 L 391.31 212.57 L 394.06 215.31 L 394.06 220.80 L 396.80 223.54 L 396.80 231.77 L 399.54 234.51 L 399.54 237.26 L 402.29 240.00 L 410.51 240.00 L 413.26 237.26 L 413.26 80.91 L 402.29 80.91 L 402.29 83.66 L 399.54 86.40 L 396.80 86.40 L 394.06 89.14 L 372.11 89.14 L 369.37 86.40 L 361.14 86.40 L 358.40 83.66 L 355.66 83.66 L 352.91 80.91 L 344.69 80.91 L 341.94 78.17 L 339.20 78.17 L 336.46 75.43 L 328.23 75.43 L 325.49 72.69 L 322.74 72.69 L 320.00 69.94 L 303.54 69.94 L 300.80 67.20 L 295.31 67.20 L 292.57 64.46 Z" fill="#FFFFFF" /></svg>